<svg width="155" height="30" fill="none" xmlns="http://www.w3.org/2000/svg">
    <path d="m103.004 29.58-4.12-10.609a1.07 1.07 0 0 0-.99-.678h-1.668c-.437 0-.83-.267-.99-.677L88.556.419h-6.04l-6.501 16.425c-.277.696.236 1.45.985 1.45.75 0 1.262.753.986 1.449l-3.894 9.838h28.912ZM85.394 5.642l4.62 11.975c.156.41.552.677.99.677h1.667c.437 0 .834.273.99.678l2.386 6.19H81.001l2.091-5.427a1.06 1.06 0 0 0-.99-1.44h-.031a1.06 1.06 0 0 1-.99-1.441l4.317-11.212h-.005Zm68.999 19.485v4.455h-22.165v-9.95c0-.74-.597-1.338-1.338-1.338h-.446c-.74 0-1.337-.597-1.337-1.337V.419h21.754v4.46H134.11v8.955h14.249v4.46h-9.789c-.74 0-1.338.597-1.338 1.337v5.495h17.161ZM34.705 19.63v9.95h-4.92v-9.95c0-.74-.592-1.338-1.332-1.338h-.447c-.74 0-1.337-.597-1.337-1.337V4.879h-8.416v12.077c0 .74.598 1.337 1.338 1.337h.446c.74 0 1.338.598 1.338 1.338v9.95h-4.923v-9.95c0-.74-.594-1.338-1.334-1.338h-.446c-.74 0-1.338-.597-1.338-1.337V4.879H4.92v12.077c0 .74.598 1.337 1.338 1.337h.446c.74 0 1.338.598 1.338 1.338v9.95H3.12v-9.95c0-.74-.597-1.338-1.337-1.338h-.446c-.74 0-1.338-.597-1.338-1.337V.419h31.583v16.537c0 .74.598 1.337 1.338 1.337h.446c.74 0 1.338.598 1.338 1.338Zm36.489-1.338h-1.017c-.509 0-.972-.294-1.2-.749a2.878 2.878 0 0 0-.602-.834c-.695-.669-1.833-1.003-3.416-1.003 1.53-.553 2.72-1.458 3.581-2.707.86-1.249 1.293-2.805 1.293-4.665 0-1.498-.396-2.854-1.186-4.063-.794-1.208-1.873-2.154-3.25-2.832C64.022.758 62.487.42 60.793.42H47.669v16.536c0 .74.593 1.337 1.334 1.337h.446c.74 0 1.337.598 1.337 1.338v9.95h5v-9.95c0-.74.602-1.338 1.342-1.338h7.621c.406 0 .759.027 1.066.08h.005c.517.085.892.246 1.133.482.388.375.584 1.115.584 2.226v8.5h5v-9.749c0-.085 0-.183-.01-.285a1.341 1.341 0 0 0-1.338-1.254h.005Zm-6.957-6.627c-.406.696-1.004 1.236-1.793 1.628-.794.388-1.757.58-2.894.58h-6.877V4.879h6.877c1.721 0 3.032.361 3.937 1.08.901.722 1.352 1.805 1.352 3.25 0 .946-.201 1.766-.602 2.457ZM45.34 19.631v9.95h-5.004v-9.95c0-.74-.593-1.338-1.333-1.338h-.446c-.74 0-1.338-.597-1.338-1.337V.419h5v16.537c0 .74.597 1.337 1.337 1.337h.446c.74 0 1.338.598 1.338 1.338Zm83.132 0v9.95h-4.379v-3.042c-.473.584-1.106 1.142-1.895 1.668-.794.526-1.744.959-2.855 1.293-1.11.33-2.359.5-3.75.5-2.747 0-5.173-.647-7.269-1.94-2.096-1.289-3.724-3.073-4.875-5.351-.432-.857-.905-2.422-1.19-3.439a1.334 1.334 0 0 0-1.289-.977h-.932a1.33 1.33 0 0 1-1.33-1.177 20.224 20.224 0 0 1-.11-2.114c0-2.863.583-5.432 1.752-7.71 1.164-2.275 2.832-4.059 4.999-5.352C107.513.647 110.028 0 112.891 0c2.444 0 4.558.442 6.351 1.316 1.793.874 3.189 2.082 4.187 3.625.999 1.539 1.57 3.31 1.709 5.312h-5c-.223-1.806-.932-3.225-2.123-4.25-1.195-1.03-2.836-1.543-4.919-1.543h-.414c-1.86 0-3.474.423-4.835 1.27-1.36.848-2.408 2.061-3.144 3.644-.735 1.583-1.106 3.46-1.106 5.628 0 .75.045 1.467.134 2.15.089.682.66 1.141 1.325 1.141h.99c.584 0 1.106.38 1.275.941.152.486.339 1.048.495 1.392.736 1.583 1.784 2.796 3.144 3.643 1.361.848 2.975 1.271 4.835 1.271h.414c1.392 0 2.654-.254 3.791-.771 1.142-.513 2.1-1.195 2.774-2.123a7.364 7.364 0 0 0 1.208-2.756c.165-.794-.472-1.597-1.315-1.597h-9.785v-4.46h8.915c1.137 0 1.971.349 2.623.92.588.517.807 1.538.887 2.35.067.678.647 1.19 1.329 1.19h.486c.74 0 1.338.598 1.338 1.338h.013Z"
          fill="#fdff5d"></path>
</svg>